<?xml version="1.0" encoding="UTF-8"?>
<svg xmlns="http://www.w3.org/2000/svg" xmlns:xlink="http://www.w3.org/1999/xlink" width="24px" height="24px" viewBox="0 0 24 24" version="1.1">
<g id="surface1">
<path style=" stroke:none;fill-rule:nonzero;fill:rgb(0%,0%,0%);fill-opacity:1;" d="M 5 2.457031 C 5 2.457031 9.789062 -0.144531 13.882812 2.992188 L 11.589844 10.867188 C 11.589844 10.867188 9.023438 9.101562 7.121094 9.292969 C 5.21875 9.484375 2.707031 10.394531 2.707031 10.394531 Z M 0.0234375 19.714844 C 1.078125 19.167969 2.664062 18.890625 4.492188 18.738281 C 6.320312 18.585938 8.894531 20.261719 8.894531 20.261719 L 11.210938 12.300781 C 10.84375 12.039062 9.140625 10.890625 7.007812 10.738281 C 4.875 10.585938 2.304688 11.78125 2.304688 11.78125 Z M 10.128906 20.960938 C 10.546875 21.125 11.921875 22.433594 14.207031 22.546875 C 16.492188 22.660156 19.011719 21.480469 19.011719 21.480469 C 19.011719 21.480469 21.257812 13.625 21.304688 13.59375 C 21.320312 13.585938 21.273438 13.617188 21.257812 13.625 C 19.121094 14.460938 18.03125 14.585938 16.453125 14.625 C 14.851562 14.664062 12.410156 13.074219 12.410156 13.074219 Z M 15.09375 3.824219 L 12.796875 11.652344 C 12.796875 11.652344 14.664062 13.480469 17.292969 13.328125 C 19.921875 13.175781 21.347656 12.347656 21.695312 12.230469 L 23.976562 4.332031 C 23.976562 4.332031 20.949219 5.597656 18.96875 5.367188 C 16.988281 5.136719 15.753906 4.296875 15.09375 3.824219 Z M 15.09375 3.824219 "/>
</g>
</svg>
